<?xml version="1.0" encoding="utf-8"?>
<!-- Generator: Adobe Illustrator 22.1.0, SVG Export Plug-In . SVG Version: 6.00 Build 0)  -->
<svg version="1.1" id="Capa_1" xmlns="http://www.w3.org/2000/svg" xmlns:xlink="http://www.w3.org/1999/xlink" x="0px" y="0px"
	 viewBox="0 0 50 37.1" style="enable-background:new 0 0 50 37.1;" xml:space="preserve">
<style type="text/css">
	.st0{fill:#0EA194;}
</style>
<g>
	<path class="st0" d="M49.9,24.9L49.9,24.9L49.9,24.9c-0.3-1.6-0.9-3.1-1.8-4.3l0,0c0,0,0,0-0.1-0.1c-1.1-1.5-2.6-2.7-4.3-3.4
		c0-0.1,0-0.2-0.1-0.2l-3.2-7.4C39,6.2,35.7,4,32,4h-1.4V2.5c0-1.4-1.1-2.5-2.5-2.5H21c-1.4,0-2.5,1.1-2.5,2.5v1.4h-0.6
		c-3.6,0-6.9,2.2-8.4,5.5l-3.2,7.4c0,0.1-0.1,0.2-0.1,0.2C2.6,18.6,0,22.3,0,26.5v6.3c0,0.5,0.4,1,1,1h6.1c0.5,1.9,2.3,3.3,4.3,3.3
		s3.8-1.4,4.3-3.3H34c0.5,1.9,2.3,3.3,4.3,3.3s3.8-1.4,4.3-3.3H49c0.5,0,1-0.4,1-1v-6.3C50,26,50,25.4,49.9,24.9z M20.4,2.5
		C20.4,2.2,20.7,2,21,2h7.2c0.3,0,0.6,0.3,0.6,0.6V4h-8.4L20.4,2.5L20.4,2.5z M46.8,22.1c0.4,0.6,0.7,1.3,0.9,2h-2.3
		c-0.5,0-1-0.4-1-1s0.4-1,1-1H46.8L46.8,22.1z M38.7,10.2l2.6,6.2c-0.5-0.1-1.1-0.1-1.6-0.1H26V5.9h6.2C35,5.9,37.6,7.6,38.7,10.2z
		 M11.3,10.2c1.1-2.6,3.7-4.3,6.6-4.3H24v10.4H10.3c-0.6,0-1.1,0-1.6,0.1L11.3,10.2z M7,31.9H5.4c0.4-3,2.9-5.3,6-5.3s5.6,2.3,6,5.3
		h-1.6c-0.4-2.1-2.2-3.8-4.4-3.8S7.3,29.7,7,31.9z M11.4,35.2c-1.4,0-2.5-1.1-2.5-2.5s1.1-2.5,2.5-2.5s2.5,1.1,2.5,2.5
		C13.9,34.1,12.8,35.2,11.4,35.2z M38.4,28.1c-2.2,0-4.1,1.6-4.4,3.8h-1.6c0.4-3,2.9-5.3,6-5.3s5.6,2.3,6,5.3h-1.6
		C42.5,29.7,40.6,28.1,38.4,28.1z M38.4,35.2c-1.4,0-2.5-1.1-2.5-2.5s1.1-2.5,2.5-2.5s2.5,1.1,2.5,2.5
		C40.9,34.1,39.8,35.2,38.4,35.2z M48,31.9h-1.7c-0.4-4.1-3.8-7.3-8-7.3s-7.6,3.2-8,7.3H26v-6.3c0-0.5-0.4-1-1-1c-0.5,0-1,0.4-1,1
		v6.3h-4.6c-0.4-4.1-3.8-7.3-8-7.3s-7.6,3.2-8,7.3H2v-5.3c0-4.6,3.7-8.3,8.3-8.3h29.4c2,0,3.9,0.7,5.4,2c-1.5,0.1-2.7,1.4-2.7,2.9
		c0,1.6,1.3,2.9,2.9,2.9H48c0,0.2,0,0.3,0,0.5V31.9L48,31.9z"/>
	<path class="st0" d="M31.4,20.8h-2.2c-0.5,0-1,0.4-1,1s0.4,1,1,1h2.2c0.5,0,1-0.4,1-1S31.9,20.8,31.4,20.8z"/>
	<path class="st0" d="M12.5,20.8h-1.8c-0.5,0-1,0.4-1,1s0.4,1,1,1h1.8c0.5,0,1-0.4,1-1S13,20.8,12.5,20.8z"/>
	<path class="st0" d="M25,20.8c-0.3,0-0.5,0.1-0.7,0.3c-0.2,0.2-0.3,0.4-0.3,0.7s0.1,0.5,0.3,0.7c0.2,0.2,0.4,0.3,0.7,0.3
		s0.5-0.1,0.7-0.3S26,22,26,21.8s-0.1-0.5-0.3-0.7S25.3,20.8,25,20.8z"/>
</g>
</svg>
