<?xml version="1.0" encoding="utf-8"?>
<!-- Generator: Adobe Illustrator 22.1.0, SVG Export Plug-In . SVG Version: 6.00 Build 0)  -->
<svg version="1.1" id="Capa_1" xmlns="http://www.w3.org/2000/svg" xmlns:xlink="http://www.w3.org/1999/xlink" x="0px" y="0px"
	 viewBox="0 0 50 50" style="enable-background:new 0 0 50 50;" xml:space="preserve">
<style type="text/css">
	.st0{fill:#00ABE4;}
</style>
<g>
	<path class="st0" d="M45.2,31.6c0.8-2.4,1.3-4.9,1.3-7.5c0-5.9-2.3-11.5-6.5-15.7s-9.8-6.5-15.7-6.5S12.7,4.2,8.5,8.4
		S2,18.2,2,24.1s2.3,11.5,6.5,15.7s9.8,6.5,15.7,6.5c2.5,0,4.9-0.4,7.2-1.2c1.8,1.8,4.2,2.9,6.9,2.9c5.3,0,9.6-4.3,9.6-9.6
		C48,35.8,46.9,33.4,45.2,31.6z M24.2,44.6C13,44.6,3.8,35.4,3.8,24.1S13,3.7,24.2,3.7s20.5,9.2,20.5,20.5c0,2.2-0.3,4.3-1,6.3
		c-1.5-1.1-3.4-1.7-5.4-1.7c-5.3,0-9.6,4.3-9.6,9.6c0,2,0.6,3.8,1.6,5.3C28.4,44.3,26.3,44.6,24.2,44.6z M38.3,46.3
		c-4.4,0-7.9-3.6-7.9-7.9s3.6-7.9,7.9-7.9s7.9,3.6,7.9,7.9S42.7,46.3,38.3,46.3z"/>
	<path class="st0" d="M37.8,18c0-4.7-3.8-8.5-8.5-8.5H15v29.7h8.9V26.5h5.4C34,26.5,37.8,22.7,37.8,18z M22.5,25v12.7h-6V10.9h12.9
		c3.9,0,7.1,3.2,7.1,7.1s-3.3,7-7.2,7H22.5z"/>
	<path class="st0" d="M32,17.9c0-1.5-1.2-2.7-2.7-2.7h-6.8v5.4h6.8C30.8,20.7,32,19.4,32,17.9z M29.3,19.2h-5.4v-2.6h5.4
		c0.7,0,1.3,0.6,1.3,1.3C30.6,18.6,30,19.2,29.3,19.2z"/>
	<path class="st0" d="M39.8,37.7H39V35h2.8v-1.4H39v-1.4h-1.4v1.4h-0.8c-1.5,0-2.8,1.2-2.8,2.8c0,1.5,1.2,2.8,2.8,2.8h0.8v2.7h-2.8
		v1.4h2.8v1.4H39v-1.4h0.8c1.5,0,2.8-1.2,2.8-2.8S41.3,37.7,39.8,37.7z M37.6,37.7h-0.8c-0.7,0-1.3-0.6-1.3-1.3s0.6-1.3,1.3-1.3h0.8
		V37.7z M39.8,41.8H39v-2.7h0.8c0.7,0,1.3,0.6,1.3,1.3C41.1,41.2,40.5,41.8,39.8,41.8z"/>
</g>
</svg>
