<svg id="圖層_1" data-name="圖層 1" xmlns="http://www.w3.org/2000/svg" xmlns:xlink="http://www.w3.org/1999/xlink" viewBox="0 0 478 272"><defs><style>.cls-1{fill:url(#未命名漸層_20);}.cls-2{fill:#fff;}</style><linearGradient id="未命名漸層_20" x1="239" y1="-45.9" x2="239" y2="288.77" gradientUnits="userSpaceOnUse"><stop offset="0" stop-color="#3fc2ff"/><stop offset="0.14" stop-color="#3ac3f9"/><stop offset="0.33" stop-color="#2dc4e8"/><stop offset="0.55" stop-color="#17c7cc"/><stop offset="0.64" stop-color="#0cc8be"/><stop offset="1" stop-color="#0cc8be"/></linearGradient></defs><title>Logo-6-2</title><rect class="cls-1" width="478" height="272" rx="11" ry="11"/><path class="cls-2" d="M105.38,357.34c-2.71-40.2-10.85-80,.38-120.35-22.07-6.82-33.21-25.5-42.11-45.51-6.66-15-11.44-30.79-16.79-46.33-1.42-4.13-2.26-8.73,4.5-11.23,1.32,4.29,2.52,8.16,3.69,12,6.83,22.69,14.68,44.93,29.39,64,18.8,24.36,37.82,24.23,55.84-.69,14.49-20,22.17-43.14,28.82-66.65a16,16,0,0,1,5.8-8.26c-2,20.63-9,39.67-18,57.88-9.16,18.45-19.76,36-40.8,44,7.6,26,5.38,52.46,2.93,78.89-1.11,12-2.15,24-3.26,36C115.21,356.88,112.37,359.47,105.38,357.34Zm5.55-111.91c-5.63,10.47-5.4,63.73.22,88.76C113.49,304.19,117.49,275.14,110.93,245.43Z" transform="translate(-11 -113.56)"/><path class="cls-2" d="M325.37,196.91c-.06-3.82,1.23-5.37,4.58-5.68,15.24-1.42,24.48,10.54,20.69,27-5.4,23.4-28.58,33.3-51.16,21.79-15.33-7.81-22.41-21.3-23.77-37.6-1.78-21.43,4.2-40.75,19.57-56.34,12.79-13,29.14-15.46,45.63-7.69,2.3,1.09,4.39,2.09,2.84,5.05-1.36,2.6-3.23,1.76-5.4.72-18.41-8.83-35.71-4-47.34,12.78-12.67,18.32-16.15,47.79-1.47,67.21,8.29,11,27,17.71,40,13.6,11.11-3.5,18.81-15.6,17.21-27-1.2-8.58-7.56-14-16.54-14C328.8,196.7,327.36,196.82,325.37,196.91Z" transform="translate(-11 -113.56)"/><path class="cls-2" d="M355.35,238.28c1.51-1.63,2.56-3.84,3.94-4.07,21.62-3.67,31.66-19.59,39.41-37.52,7.6-17.58,11.06-36.28,13.14-55.26.23-2.07,1.23-4.06,2.32-7.49,2,2.6,3.23,3.87,4.13,5.31,16.54,26.45,25.84,54.93,24.34,86.47-.4,8.47-.78,9.89-5.31,12.74.26-4,.73-7.32.65-10.63-.21-8.25-.48-16.52-1.19-24.73-.12-1.39-2.42-3.49-3.95-3.72-13.22-2-24.69,2.93-35.47,9.85-1.4.9-2.15,2.86-3.12,4.38-8.29,13.05-18.92,22.92-34.79,25.7a8.88,8.88,0,0,1-2,.12C357.21,239.41,356.93,239.14,355.35,238.28Zm47.25-37.44a54,54,0,0,1,32.57-7.54,155.17,155.17,0,0,0-18.66-45.91Z" transform="translate(-11 -113.56)"/><path class="cls-2" d="M237.35,134.4c.33,3.33-.83,4.91-4.25,5.25-27.84,2.74-41,24.27-43.17,47.24-1.18,12.62-.26,25.15,6.77,36.4,11.89,19,34.12,18.66,47.88,4.5,16.36-16.83,17.87-42.87,4.47-62-1.61-2.3-2.27-4.36.22-5.79.82-.47,3.52.94,4.39,2.17,10.69,15.24,11,31.79,5.29,48.77-5.2,15.37-14.62,27-31,31.45s-32.43-4.36-38.17-20.23c-8.88-24.54-6-47.53,9.16-68.64,8.8-12.25,21.45-18.32,36.41-19.59A6.83,6.83,0,0,1,237.35,134.4Z" transform="translate(-11 -113.56)"/><path class="cls-2" d="M380.77,214.57c-.58-.75-2.13-2-2.58-3.49-.71-2.41,4.77-7.51,8-7.33a4.38,4.38,0,0,1,3.17,2.66C390,209.56,385.46,214.34,380.77,214.57Z" transform="translate(-11 -113.56)"/><path class="cls-2" d="M338.24,216.11c-.2,3.8-5.86,8.63-8.7,7.79A6,6,0,0,1,326.1,220c-.53-2.76,5-6.24,9.08-5.75C336.41,214.35,337.51,215.63,338.24,216.11Z" transform="translate(-11 -113.56)"/><path class="cls-2" d="M119.87,208c-3.22,4.57-5.53,10.56-7.8,10.55-6.42,0-6.08-6.45-6.26-11.12-.15-4,.81-8.84,6.24-7.49C114.74,200.63,116.62,204.52,119.87,208Z" transform="translate(-11 -113.56)"/><path class="cls-2" d="M191.6,269.61h39.28q34.93,0,34.93,22.43,0,11.12-12,18.48,17.34,6.14,17.34,21.91,0,12.09-10.22,19.26a31.75,31.75,0,0,1-10.69,4.78,69.1,69.1,0,0,1-15.36,1.36h-6.1V335.14h5.46q4.83,0,6.81-1a3.61,3.61,0,0,0,2-3.52q0-4.27-8.08-4.27h-6.18V302.83q8.87,0,8.87-5,0-4.59-8-4.59h-5.94v64.56H191.6Z" transform="translate(-11 -113.56)"/><path class="cls-2" d="M334.09,320h20.12q.31,3,.32,4.27A25.86,25.86,0,0,1,349.85,339l15.21,18.87h-28.2l-3.17-3.1a38.4,38.4,0,0,1-19.33,5.3q-14.57,0-24.83-8.24t-10.26-19.94q0-13.25,14.1-22.68-7.6-7.88-7.6-16.22,0-10.53,9.07-18t21.82-7.5a33.82,33.82,0,0,1,21.7,7.24q9.11,7.24,9.11,17.19,0,1.36-.16,3.36H322.84q-.63-6.59-5.62-6.59-4.67,0-4.67,3.68a4.77,4.77,0,0,0,1.35,2.91Zm-25.66,5.95q-3.88,2.33-3.88,5.43a6.48,6.48,0,0,0,2.34,5,8.34,8.34,0,0,0,5.74,2.07,10.8,10.8,0,0,0,5.46-1.74Z" transform="translate(-11 -113.56)"/><path class="cls-2" d="M374.72,269.61H414q34.93,0,34.93,22.43,0,11.12-12,18.48,17.34,6.14,17.34,21.91,0,12.09-10.22,19.26a31.75,31.75,0,0,1-10.69,4.78A69.1,69.1,0,0,1,418,357.83h-6.1V335.14h5.46q4.83,0,6.81-1a3.61,3.61,0,0,0,2-3.52q0-4.27-8.08-4.27h-6.18V302.83q8.87,0,8.87-5,0-4.59-8-4.59h-5.94v64.56H374.72Z" transform="translate(-11 -113.56)"/><path class="cls-2" d="M250,149.22c-.2,3.8-5.86,8.63-8.7,7.79a6,6,0,0,1-3.44-3.95c-.53-2.76,5-6.24,9.08-5.75C248.12,147.47,249.22,148.74,250,149.22Z" transform="translate(-11 -113.56)"/></svg>